# xmcd
#
# Track frame offsets: 
#        150
#        10727
#        22053
#        35802
#        51596
#        65851
#        79800
#        95473
#        104932
#        116762
#        132512
#
# Disc length: 1965 seconds
#
# Revision: 0
# Processed by: cddbd v1.5.2PL0 Copyright (c) Steve Scherf et al.
# Submitted via: ExactAudioCopyFreeDBPlugin 1.0
#
DISCID=a907ab0b
DTITLE=Prissy Clerks - Bruise Or Be Bruised
DYEAR=2012
DGENRE=Alternative
TTITLE0=Bruise Or Be Bruised
TTITLE1=Death Wish
TTITLE2=Blast-Off Girls
TTITLE3=Wisest
TTITLE4=Tiny Brains
TTITLE5=No Sir
TTITLE6=Losing Time
TTITLE7=Psychic Love
TTITLE8=I'm Too Young To Lose My Mind
TTITLE9=Daydream Catcher
TTITLE10=Stay Glad
EXTD=
EXTT0=
EXTT1=
EXTT2=
EXTT3=
EXTT4=
EXTT5=
EXTT6=
EXTT7=
EXTT8=
EXTT9=
EXTT10=
PLAYORDER=
